# xmcd
#
# Track frame offsets: 
#        150
#        24550
#        43087
#        69462
#        87500
#        108987
#        129737
#        151187
#        169737
#        189112
#        208275
#
# Disc length: 2901 seconds
#
# Revision: 1
# Processed by: cddbd v1.5.2PL0 Copyright (c) Steve Scherf et al.
# Submitted via: ExactAudioCopy v1.0b1
#
DISCID=930b530b
DTITLE=巫啟賢 - 思念誰
DYEAR=1996
DGENRE=Pop
TTITLE0=風
TTITLE1=思念誰
TTITLE2=回來
TTITLE3=同桌的你
TTITLE4=春水流
TTITLE5=愛人原諒我
TTITLE6=大中國
TTITLE7=彎彎的月亮
TTITLE8=離家．回家
TTITLE9=隨心所欲
TTITLE10=Fly Away
EXTD=
EXTT0=
EXTT1=
EXTT2=
EXTT3=
EXTT4=
EXTT5=
EXTT6=
EXTT7=
EXTT8=
EXTT9=
EXTT10=
PLAYORDER=
